<svg width="704" height="619" viewBox="0 0 704 619" fill="none" xmlns="http://www.w3.org/2000/svg">
<path opacity="0.2" d="M232.644 361.423L277.391 337.646L277.358 337.491C276.241 332.352 274.507 327.375 272.198 322.649C264.408 306.705 243.776 267.236 228.301 262.542C208.847 256.644 180.712 265.246 173.928 244.356C167.142 223.466 150.568 198.358 118.088 210.107C85.6069 221.855 36.7731 186.874 36.7731 186.874C36.7731 186.874 47.204 230.47 89.9791 245.405C132.753 260.341 124.911 270.013 134.122 300.563C143.332 331.114 144.92 349.714 197.584 348.817C211.867 348.574 223.408 353.75 232.644 361.423Z" fill="#05264E"/>
<path d="M243.594 355.605L264.879 344.294C252.367 348.505 217.346 351.415 201.759 328.218C182.017 298.836 171.152 305.108 150.767 311.771C130.385 318.432 128.065 326.472 103.393 308.626C78.7219 290.782 50.6761 301.783 50.6761 301.783C50.6761 301.783 88.7288 315.266 94.7331 337.689C100.736 360.112 120.949 359.603 135.074 355.317C149.199 351.029 155.267 369.848 165.995 378.307C170.891 382.167 182.745 382.565 194.189 381.857L243.594 355.605Z" fill="#5094E6"/>
<path d="M181.224 349.497C187.102 358.316 198.34 366.543 211.287 371.508C211.742 371.683 212.211 371.856 212.687 372.028L215.11 370.74C214.029 370.379 212.989 370.008 212.005 369.63C199.622 364.883 188.466 356.741 182.893 348.383C174.023 335.078 158.076 331.272 131.184 336.046C115.575 338.818 102.726 324.793 102.6 324.648C102.229 324.237 101.593 324.202 101.183 324.573C100.769 324.945 100.735 325.582 101.105 325.991C101.658 326.606 114.815 340.994 131.534 338.026C157.531 333.409 172.855 336.946 181.224 349.497Z" fill="#313B98"/>
<path d="M147.093 256.002C164.144 292.894 182.359 309.12 206.149 308.627C221.092 308.321 240.521 315.011 256.854 326.09C262.011 329.589 267.768 334.109 273.384 339.775L276.139 338.311C270.169 332.188 264.019 327.337 258.533 323.615C241.458 312.034 221.851 305.317 206.087 305.645C183.646 306.107 166.288 290.408 149.807 254.745C139.207 231.809 110.448 227.99 109.229 227.838C108.412 227.735 107.664 228.317 107.563 229.14C107.46 229.957 108.042 230.703 108.859 230.807C109.144 230.837 137.198 234.589 147.093 256.002Z" fill="#3550AA"/>
<path d="M146.351 60.5567C142.786 30.5016 133.872 2.70135 120.867 13.0294C107.852 23.3678 124.096 70.9144 151.305 98.5121L158.317 110.114C138.837 89.6559 106.18 76.0126 96.3681 86.1401C86.6168 96.2043 109.181 103.312 130.872 106.366C147.383 108.693 157.66 113.996 162.601 117.205L195.712 171.997C164.778 139.687 113.206 118.206 97.6786 134.231C82.206 150.201 118.008 161.478 152.426 166.325C178.435 169.986 194.706 178.315 202.615 183.415L209.214 194.34C211.291 193.494 213.359 192.633 215.421 191.759L176.027 126.574C176.212 120.165 177.422 111.168 181.374 100.125C188.758 79.5015 192.957 56.2221 179.512 60.1745C167.847 63.6057 163.928 90.2964 168.876 114.738L155.254 92.1963C152.23 84.5025 147.891 73.5272 146.351 60.5567Z" fill="#5094E6"/>
<path opacity="0.2" d="M535.492 545.639C553.878 531.4 594.379 497.687 622.438 457.067C662.705 398.766 694.13 408.569 697.542 431.494C706.366 490.778 602.101 540.279 559.235 557.995L535.492 545.639Z" fill="#05264E"/>
<path d="M543.85 549.987C574.588 532.67 601.504 510.946 620.035 494.318C644.821 472.087 660.375 453.926 660.532 453.743C661.087 453.091 662.071 453.012 662.724 453.571C663.38 454.128 663.459 455.111 662.896 455.764C662.745 455.945 647.079 474.236 622.155 496.601C603.846 513.031 577.401 534.41 547.139 551.697L543.85 549.987Z" fill="#3550AA"/>
<path d="M542.4 524.168C551.891 510.144 570.275 480.567 579.764 449.22C593.945 402.376 616.683 402.193 623.762 416.548C643.214 455.98 576.461 515.063 555.37 532.379L542.4 524.168Z" fill="#5094E6"/>
<path d="M547.336 527.294C564.063 509.323 577.305 489.177 586.047 474.225C597.656 454.374 604.054 439.147 604.118 438.993C604.345 438.447 604.976 438.188 605.522 438.42C606.073 438.644 606.332 439.275 606.099 439.823C606.038 439.974 599.593 455.309 587.923 475.281C579.166 490.259 565.922 510.414 549.183 528.462L547.336 527.294Z" fill="#313B98"/>
<path d="M473.716 83.9625C474.019 53.6949 479.881 25.098 493.923 33.9617C507.981 42.8319 496.96 91.8583 472.888 122.229L467.173 134.519C484.327 112.079 515.32 94.9911 526.171 104.001C536.953 112.953 515.289 122.454 494.052 127.832C477.887 131.924 468.244 138.31 463.676 142.032L436.671 200.075C463.941 164.618 512.891 137.696 530.057 151.952C547.162 166.156 512.785 181.234 479.091 189.765C453.63 196.214 438.354 206.25 431.043 212.171L425.658 223.747C423.506 223.128 421.356 222.496 419.21 221.852L451.339 152.796C450.466 146.441 448.291 137.629 443.171 127.079C433.605 107.371 426.916 84.6803 440.711 87.1604C452.679 89.3105 459.455 115.425 457.171 140.257L468.283 116.375C470.459 108.399 473.588 97.0227 473.716 83.9625Z" fill="#5094E6"/>
<path d="M507.29 269.927C495.619 286.404 504.694 305.977 524.747 306.721C531.373 306.967 539.024 305.102 547.584 299.595C580.191 278.611 582.129 248.752 554.377 239.256C537.248 233.397 518.859 253.602 507.29 269.927Z" fill="#B3D3F9"/>
<path opacity="0.2" d="M218.184 538.995C203.468 527.598 171.049 500.613 148.59 468.099C116.358 421.433 91.2046 429.28 88.4739 447.629C81.4102 495.083 164.868 534.705 199.179 548.886L218.184 538.995Z" fill="#05264E"/>
<path d="M211.495 542.475C186.891 528.614 165.347 511.226 150.513 497.916C130.674 480.121 118.223 465.585 118.098 465.438C117.654 464.917 116.866 464.853 116.343 465.3C115.818 465.746 115.755 466.533 116.206 467.056C116.327 467.201 128.866 481.841 148.817 499.744C163.472 512.894 184.639 530.007 208.862 543.844L211.495 542.475Z" fill="#3550AA"/>
<path d="M212.656 521.809C205.059 510.584 190.344 486.909 182.748 461.818C171.397 424.323 153.197 424.176 147.53 435.666C131.961 467.229 185.393 514.521 202.275 528.381L212.656 521.809Z" fill="#5094E6"/>
<path d="M208.706 524.311C195.316 509.926 184.717 493.801 177.72 481.833C168.427 465.943 163.307 453.755 163.255 453.631C163.074 453.195 162.569 452.988 162.131 453.173C161.691 453.352 161.483 453.857 161.669 454.296C161.718 454.417 166.877 466.692 176.219 482.678C183.228 494.667 193.828 510.8 207.227 525.246L208.706 524.311Z" fill="#313B98"/>
<g clip-path="url(#clip0_233_6300)">
<path d="M239.899 322.409L239.721 315.34C239.665 313.01 239.581 310.707 239.557 308.417L239.899 308.757C234.38 308.822 228.862 308.956 223.342 308.962L206.785 309.041L207.409 308.417L207.343 322.409L206.785 321.852C209.514 321.874 212.235 321.862 214.971 321.921L223.198 322.061L239.899 322.409ZM239.899 322.409L223.487 322.758L215.158 322.898C212.374 322.957 209.577 322.945 206.785 322.967L206.23 322.972L206.228 322.409L206.16 308.417L206.158 307.789L206.785 307.792L223.342 307.871C228.862 307.877 234.38 308.012 239.899 308.076L240.244 308.079L240.24 308.417C240.218 310.79 240.133 313.153 240.076 315.486L239.899 322.409Z" fill="#E7E8E5"/>
<path d="M238.726 225.954H236.663V142.848H238.726V225.954Z" fill="#D4D6D3"/>
<path d="M206.154 196.929H193.692V159.798H206.154V196.929Z" fill="#D4D6D3"/>
<path d="M513.967 444.817H498.986V436.206H513.967V444.817Z" fill="#BEBFBD"/>
<path d="M518.397 444.168H503.416V436.856H518.397V444.168Z" stroke="#BEBFBD" stroke-width="0.312626" stroke-miterlimit="10"/>
<path d="M513.967 499.453H498.986V490.845H513.967V499.453Z" fill="#BEBFBD"/>
<path d="M518.397 498.805H503.416V491.492H518.397V498.805Z" stroke="#BEBFBD" stroke-width="0.312626" stroke-miterlimit="10"/>
<g filter="url(#filter0_f_233_6300)">
<path d="M581.076 588.812C581.076 605.305 470.047 618.675 333.083 618.675C196.12 618.675 85.0894 605.305 85.0894 588.812C85.0894 572.319 196.12 558.95 333.083 558.95C470.047 558.95 581.076 572.319 581.076 588.812Z" fill="#05264E" fill-opacity="0.07"/>
</g>
<path d="M426.932 545.64C426.932 556.606 418.721 565.475 408.594 565.475H227.56C217.41 565.475 209.197 556.606 209.197 545.64V145.771C209.197 123.436 217.41 122.347 227.56 122.347H263.828C265.935 122.347 267.659 124.74 267.659 127.709V128.99C267.659 135.944 271.465 135.969 276.135 135.969H359.996C364.712 135.969 368.494 135.944 368.494 128.99V127.709C368.494 124.74 370.194 122.347 372.337 122.347H408.594C418.721 122.347 426.932 125.314 426.932 145.771V545.64ZM419.247 109.132H216.882C205.582 109.132 196.414 118.457 196.414 129.982V558.521C196.414 570.024 205.582 579.373 216.882 579.373H419.247C430.547 579.373 439.739 570.024 439.739 558.521V129.982C439.739 118.457 430.547 109.132 419.247 109.132Z" fill="#17282F"/>
<path d="M426.933 145.771V545.64C426.933 556.606 418.722 565.475 408.596 565.475H227.561C217.411 565.475 209.199 556.606 209.199 545.64V145.771C209.199 123.436 217.411 122.347 227.561 122.347H263.83C265.937 122.347 267.66 124.74 267.66 127.709V128.99C267.66 135.944 271.466 135.969 276.136 135.969H359.997C364.713 135.969 368.496 135.944 368.496 128.99V127.709C368.496 124.74 370.195 122.347 372.338 122.347H408.596C418.722 122.347 426.933 125.314 426.933 145.771Z" fill="white"/>
<path d="M426.933 145.771V545.64C426.933 556.606 418.722 565.475 408.596 565.475H227.561C217.411 565.475 209.199 556.606 209.199 545.64V145.771C209.199 123.436 217.411 122.347 227.561 122.347H263.83C265.937 122.347 267.66 124.74 267.66 127.709V128.99C267.66 135.944 271.466 135.969 276.136 135.969H359.997C364.713 135.969 368.496 135.944 368.496 128.99V127.709C368.496 124.74 370.195 122.347 372.338 122.347H408.596C418.722 122.347 426.933 125.314 426.933 145.771Z" fill="white"/>
<path d="M426.933 145.771V180.304H209.199V145.771C209.199 123.436 217.411 122.347 227.561 122.347H263.83C265.937 122.347 267.66 124.74 267.66 127.709V128.989C267.66 135.944 271.466 135.969 276.136 135.969H359.997C364.713 135.969 368.496 135.944 368.496 128.989V127.709C368.496 124.74 370.195 122.347 372.338 122.347H408.596C418.722 122.347 426.933 125.314 426.933 145.771Z" fill="#275388"/>
<path d="M257.568 131.058C257.45 131.174 257.334 131.29 257.217 131.407C257.15 131.472 257.084 131.539 257.019 131.606C256.077 130.693 254.957 130.205 253.644 130.205C252.332 130.205 251.212 130.69 250.264 131.609C250.201 131.544 250.139 131.478 250.074 131.413C249.96 131.295 249.844 131.18 249.729 131.064C249.726 131.062 249.721 131.06 249.717 131.058C249.717 131.055 249.717 131.053 249.717 131.049C249.726 131.043 249.735 131.037 249.744 131.029C249.891 130.898 250.035 130.762 250.186 130.636C250.501 130.378 250.845 130.163 251.212 129.984C251.643 129.772 252.096 129.614 252.57 129.527C252.794 129.486 253.021 129.465 253.249 129.437C253.325 129.428 253.826 129.426 253.841 129.427C253.997 129.44 254.15 129.446 254.304 129.462C254.732 129.509 255.147 129.612 255.55 129.76C255.842 129.866 256.122 129.999 256.392 130.154C256.678 130.318 256.948 130.504 257.198 130.716C257.323 130.824 257.444 130.939 257.568 131.049C257.568 131.053 257.568 131.055 257.568 131.058Z" fill="white"/>
<path d="M251.374 132.707C251.19 132.523 251.007 132.343 250.821 132.158C251.451 131.538 252.196 131.145 253.073 131.027C254.383 130.849 255.508 131.248 256.462 132.15C256.273 132.337 256.09 132.52 255.905 132.704C255.279 132.095 254.525 131.767 253.641 131.767C252.758 131.767 252.005 132.096 251.374 132.707Z" fill="white"/>
<path d="M255.353 133.26C255.17 133.443 254.988 133.625 254.801 133.809C254.482 133.5 254.096 133.329 253.641 133.329C253.188 133.33 252.802 133.5 252.48 133.813C252.295 133.629 252.113 133.445 251.93 133.263C252.806 132.346 254.382 132.272 255.353 133.26Z" fill="white"/>
<path d="M254.14 134.31C254.14 134.586 253.917 134.808 253.642 134.808C253.368 134.808 253.146 134.586 253.146 134.31C253.146 134.035 253.368 133.813 253.642 133.813C253.917 133.813 254.14 134.035 254.14 134.31Z" fill="white"/>
<path d="M223.399 132.117C223.399 131.32 224.046 130.674 224.843 130.674C225.639 130.674 226.286 131.32 226.286 132.117C226.286 132.915 225.639 133.56 224.843 133.56C224.046 133.56 223.399 132.915 223.399 132.117Z" fill="white"/>
<path d="M227.946 132.117C227.946 131.32 228.593 130.674 229.389 130.674C230.186 130.674 230.832 131.32 230.832 132.117C230.832 132.915 230.186 133.56 229.389 133.56C228.593 133.56 227.946 132.915 227.946 132.117Z" fill="white"/>
<path d="M232.49 132.117C232.49 131.32 233.136 130.674 233.933 130.674C234.731 130.674 235.377 131.32 235.377 132.117C235.377 132.915 234.731 133.56 233.933 133.56C233.136 133.56 232.49 132.915 232.49 132.117Z" fill="white"/>
<path d="M237.035 132.117C237.035 131.32 237.682 130.674 238.478 130.674C239.275 130.674 239.921 131.32 239.921 132.117C239.921 132.915 239.275 133.56 238.478 133.56C237.682 133.56 237.035 132.915 237.035 132.117Z" fill="white"/>
<path d="M241.58 132.117C241.58 131.32 242.226 130.674 243.024 130.674C243.821 130.674 244.467 131.32 244.467 132.117C244.467 132.915 243.821 133.56 243.024 133.56C242.226 133.56 241.58 132.915 241.58 132.117Z" fill="white"/>
<path d="M399.453 134.669H410.004V130.424H399.453V134.669ZM410.603 135.267H398.855V129.826H410.603V135.267Z" fill="white"/>
<path d="M407.403 130.75H399.83V134.343H407.403V130.75Z" fill="white"/>
<path d="M411.655 134.002H410.61V131.092H411.655V134.002Z" fill="white"/>
<path d="M229.047 167.528L222.615 161.5L229.047 155.474L230.045 156.537L224.748 161.5L230.045 166.465L229.047 167.528Z" fill="white"/>
<path d="M407.109 155.474L413.54 161.501L407.109 167.528L406.109 166.465L411.407 161.501L406.109 156.536L407.109 155.474Z" fill="white"/>
<path d="M329.511 127.281H306.635C305.855 127.281 305.222 126.648 305.222 125.868C305.222 125.088 305.855 124.455 306.635 124.455H329.511C330.291 124.455 330.924 125.088 330.924 125.868C330.924 126.648 330.291 127.281 329.511 127.281Z" fill="white"/>
<path d="M411.775 238.632H223.576V191.327H411.775V238.632Z" fill="#F2F6FD"/>
<path d="M251.055 201.295C243.203 201.295 236.814 207.682 236.814 215.535C236.814 223.387 243.203 229.775 251.055 229.775C258.908 229.775 265.297 223.387 265.297 215.535C265.297 207.682 258.908 201.295 251.055 201.295ZM251.055 232.067C241.938 232.067 234.523 224.652 234.523 215.535C234.523 206.419 241.938 199.003 251.055 199.003C260.171 199.003 267.588 206.419 267.588 215.535C267.588 224.652 260.171 232.067 251.055 232.067Z" fill="#85A8D2"/>
<path d="M259.071 221.748L257.268 223.551L243.039 209.322L244.842 207.52L259.071 221.748Z" fill="#85A8D2"/>
<path d="M257.268 207.52L259.071 209.322L244.842 223.551L243.039 221.748L257.268 207.52Z" fill="#85A8D2"/>
<path d="M400.826 205.211H279.761V202.919H400.826V205.211Z" fill="#85A8D2"/>
<path d="M400.826 214.353H279.761V212.06H400.826V214.353Z" fill="#85A8D2"/>
<path d="M378.594 218.952H279.761V216.66H378.594V218.952Z" fill="#85A8D2"/>
<path d="M345.349 223.551H279.761V221.26H345.349V223.551Z" fill="#85A8D2"/>
<path d="M378.594 228.152H279.761V225.86H378.594V228.152Z" fill="#85A8D2"/>
<path d="M411.775 362.44H223.576V315.135H411.775V362.44Z" fill="#F2F6FD"/>
<path d="M251.055 325.102C243.203 325.102 236.814 331.49 236.814 339.343C236.814 347.195 243.203 353.583 251.055 353.583C258.908 353.583 265.297 347.195 265.297 339.343C265.297 331.49 258.908 325.102 251.055 325.102ZM251.055 355.875C241.938 355.875 234.523 348.459 234.523 339.343C234.523 330.227 241.938 322.81 251.055 322.81C260.171 322.81 267.588 330.227 267.588 339.343C267.588 348.459 260.171 355.875 251.055 355.875Z" fill="#85A8D2"/>
<path d="M259.071 345.556L257.268 347.359L243.039 333.129L244.842 331.327L259.071 345.556Z" fill="#85A8D2"/>
<path d="M257.268 331.327L259.071 333.129L244.842 347.359L243.039 345.556L257.268 331.327Z" fill="#85A8D2"/>
<path d="M400.826 329.019H279.761V326.727H400.826V329.019Z" fill="#85A8D2"/>
<path d="M400.826 338.16H279.761V335.868H400.826V338.16Z" fill="#85A8D2"/>
<path d="M378.594 342.76H279.761V340.467H378.594V342.76Z" fill="#85A8D2"/>
<path d="M345.349 347.359H279.761V345.068H345.349V347.359Z" fill="#85A8D2"/>
<path d="M378.594 351.959H279.761V349.667H378.594V351.959Z" fill="#85A8D2"/>
<path d="M411.775 418.186H223.576V370.881H411.775V418.186Z" fill="#F2F6FD"/>
<path d="M251.055 380.849C243.203 380.849 236.814 387.236 236.814 395.089C236.814 402.941 243.203 409.329 251.055 409.329C258.908 409.329 265.297 402.941 265.297 395.089C265.297 387.236 258.908 380.849 251.055 380.849ZM251.055 411.621C241.938 411.621 234.523 404.206 234.523 395.089C234.523 385.973 241.938 378.556 251.055 378.556C260.171 378.556 267.588 385.973 267.588 395.089C267.588 404.206 260.171 411.621 251.055 411.621Z" fill="#85A8D2"/>
<path d="M259.071 401.302L257.268 403.105L243.039 388.876L244.842 387.074L259.071 401.302Z" fill="#85A8D2"/>
<path d="M257.268 387.074L259.071 388.876L244.842 403.105L243.039 401.302L257.268 387.074Z" fill="#85A8D2"/>
<path d="M400.826 384.765H279.761V382.473H400.826V384.765Z" fill="#85A8D2"/>
<path d="M400.826 393.906H279.761V391.614H400.826V393.906Z" fill="#85A8D2"/>
<path d="M378.594 398.506H279.761V396.214H378.594V398.506Z" fill="#85A8D2"/>
<path d="M345.349 403.105H279.761V400.814H345.349V403.105Z" fill="#85A8D2"/>
<path d="M378.594 407.706H279.761V405.414H378.594V407.706Z" fill="#85A8D2"/>
<path d="M411.775 473.932H223.576V426.627H411.775V473.932Z" fill="#F2F6FD"/>
<path d="M251.055 436.595C243.203 436.595 236.814 442.982 236.814 450.836C236.814 458.688 243.203 465.075 251.055 465.075C258.908 465.075 265.297 458.688 265.297 450.836C265.297 442.982 258.908 436.595 251.055 436.595ZM251.055 467.367C241.938 467.367 234.523 459.952 234.523 450.836C234.523 441.719 241.938 434.303 251.055 434.303C260.171 434.303 267.588 441.719 267.588 450.836C267.588 459.952 260.171 467.367 251.055 467.367Z" fill="#85A8D2"/>
<path d="M259.071 457.048L257.268 458.851L243.039 444.622L244.842 442.82L259.071 457.048Z" fill="#85A8D2"/>
<path d="M257.268 442.82L259.071 444.622L244.842 458.851L243.039 457.048L257.268 442.82Z" fill="#85A8D2"/>
<path d="M400.826 440.512H279.761V438.219H400.826V440.512Z" fill="#85A8D2"/>
<path d="M400.826 449.653H279.761V447.361H400.826V449.653Z" fill="#85A8D2"/>
<path d="M378.594 454.252H279.761V451.96H378.594V454.252Z" fill="#85A8D2"/>
<path d="M345.349 458.851H279.761V456.561H345.349V458.851Z" fill="#85A8D2"/>
<path d="M378.594 463.452H279.761V461.16H378.594V463.452Z" fill="#85A8D2"/>
<path d="M411.775 529.679H223.576V482.373H411.775V529.679Z" fill="#F2F6FD"/>
<path d="M251.055 492.341C243.203 492.341 236.814 498.729 236.814 506.582C236.814 514.434 243.203 520.821 251.055 520.821C258.908 520.821 265.297 514.434 265.297 506.582C265.297 498.729 258.908 492.341 251.055 492.341ZM251.055 523.114C241.938 523.114 234.523 515.698 234.523 506.582C234.523 497.466 241.938 490.049 251.055 490.049C260.171 490.049 267.588 497.466 267.588 506.582C267.588 515.698 260.171 523.114 251.055 523.114Z" fill="#85A8D2"/>
<path d="M259.071 512.795L257.268 514.598L243.039 500.368L244.842 498.566L259.071 512.795Z" fill="#85A8D2"/>
<path d="M257.268 498.566L259.071 500.368L244.842 514.598L243.039 512.795L257.268 498.566Z" fill="#85A8D2"/>
<path d="M400.826 496.258H279.761V493.966H400.826V496.258Z" fill="#85A8D2"/>
<path d="M400.826 505.399H279.761V503.107H400.826V505.399Z" fill="#85A8D2"/>
<path d="M378.594 509.998H279.761V507.706H378.594V509.998Z" fill="#85A8D2"/>
<path d="M345.349 514.598H279.761V512.307H345.349V514.598Z" fill="#85A8D2"/>
<path d="M378.594 519.198H279.761V516.906H378.594V519.198Z" fill="#85A8D2"/>
<path d="M418.19 300.212H217.643V249.803H418.19V300.212Z" fill="#275388"/>
<path d="M214.508 303.567H421.326V246.448H214.508V303.567ZM422.576 304.818H213.258V245.198H422.576V304.818Z" fill="#275388"/>
<path d="M244.484 284.113L237.626 277.172L239.93 274.896L243.937 278.95L252.259 265.902L254.99 267.644L244.484 284.113Z" fill="white"/>
<path d="M246.926 259.833C238.559 259.833 231.751 266.64 231.751 275.008C231.751 283.375 238.559 290.183 246.926 290.183C255.293 290.183 262.102 283.375 262.102 275.008C262.102 266.64 255.293 259.833 246.926 259.833ZM246.926 292.625C237.212 292.625 229.309 284.722 229.309 275.008C229.309 265.294 237.212 257.391 246.926 257.391C256.64 257.391 264.543 265.294 264.543 275.008C264.543 284.722 256.64 292.625 246.926 292.625Z" fill="white"/>
<path d="M406.525 264.008H277.517V261.564H406.525V264.008Z" fill="white"/>
<path d="M406.525 273.748H277.517V271.306H406.525V273.748Z" fill="white"/>
<path d="M382.832 278.65H277.517V276.208H382.832V278.65Z" fill="white"/>
<path d="M347.407 283.551H277.517V281.108H347.407V283.551Z" fill="white"/>
<path d="M382.832 288.451H277.517V286.009H382.832V288.451Z" fill="white"/>
<path d="M303.799 546.237C303.799 547.945 302.414 549.331 300.706 549.331C298.996 549.331 297.612 547.945 297.612 546.237C297.612 544.529 298.996 543.142 300.706 543.142C302.414 543.142 303.799 544.529 303.799 546.237Z" fill="#F2F6FD"/>
<path d="M323.158 546.237C323.158 549.043 320.882 551.319 318.076 551.319C315.27 551.319 312.995 549.043 312.995 546.237C312.995 543.431 315.27 541.156 318.076 541.156C320.882 541.156 323.158 543.431 323.158 546.237Z" fill="#F2F6FD"/>
<path d="M338.542 546.237C338.542 547.945 337.156 549.331 335.448 549.331C333.739 549.331 332.354 547.945 332.354 546.237C332.354 544.529 333.739 543.142 335.448 543.142C337.156 543.142 338.542 544.529 338.542 546.237Z" fill="#F2F6FD"/>
<path d="M446.018 210.628C446.018 210.628 445.83 210.666 445.517 210.754C445.53 210.691 445.567 210.641 445.606 210.603H445.619C445.869 210.628 446.018 210.628 446.018 210.628Z" fill="#17282F"/>
<path d="M484.819 271.422C484.815 271.422 484.815 271.415 484.819 271.415" stroke="#F576B7" stroke-width="0.937879" stroke-linecap="round" stroke-linejoin="round"/>
<path d="M484.819 271.422C484.815 271.422 484.815 271.415 484.819 271.415" stroke="#F576B7" stroke-width="0.937879" stroke-linecap="round" stroke-linejoin="round"/>
<path d="M460.41 571.9C460.334 571.9 460.259 571.912 460.185 571.924V571.763C460.259 571.8 460.334 571.85 460.41 571.9Z" fill="#F68C95"/>
<path d="M481.04 254.742C487.559 287.046 508.926 339.003 511.03 346.361C512.813 352.601 550.413 340.906 547.824 337.281C544.511 332.638 511.373 274.291 495.452 253.254C482.322 235.905 477.979 239.572 481.04 254.742Z" fill="#FFAEB5"/>
<path d="M546.126 334.62C550.038 339.768 556.164 354.478 557.566 359.389C558.969 364.298 561.98 378.723 558.328 380.178C554.676 381.635 553.458 377.482 553.458 377.482C553.458 377.482 553.765 383.775 549.955 384.905C546.146 386.034 544.462 379.513 544.462 379.513C544.462 379.513 544.305 385.998 540.426 386.855C536.546 387.709 535.951 380.867 535.951 380.867C535.951 380.867 536.084 386.804 532.59 386.165C528.389 385.394 529.378 374.424 527.422 369.119C526.979 367.913 516.687 345.342 516.687 345.342L546.126 334.62Z" fill="#FFAEB5"/>
<path d="M536.642 381.065C537.35 372.995 536.265 369.343 532.613 362.252C532.542 362.114 532.732 361.976 532.82 362.114C537.026 368.731 539.05 373.117 537.031 381.119C536.933 381.51 536.607 381.448 536.642 381.065Z" fill="#17282F"/>
<path d="M545.024 379.765C545.027 371.319 543.884 367.346 540.606 359.639C540.559 359.53 540.739 359.44 540.796 359.546C544.644 366.838 546.561 371.26 545.45 379.697C545.399 380.08 545.024 380.15 545.024 379.765Z" fill="#17282F"/>
<path d="M553.907 376.706C553.319 368.529 552.255 364.119 548.112 357.047C548.015 356.879 548.248 356.721 548.363 356.879C553.289 363.681 554.659 369.174 554.153 376.661C554.12 377.172 553.943 377.22 553.907 376.706Z" fill="#17282F"/>
<path d="M510.793 342.518C510.793 342.518 511.253 352.657 512.439 357.068C513.623 361.477 524.088 376.286 527.416 374.206C531.71 371.524 527.353 361.785 524.596 357.294C524.596 357.294 534.538 351.096 532.922 343.429C531.308 335.763 510.793 342.518 510.793 342.518Z" fill="#FFAEB5"/>
<path d="M528.356 373.083C530.505 367.81 526.506 362.149 524.156 357.592C523.979 357.246 524.194 356.979 524.485 356.895C528.479 354.019 533.274 348.798 533.191 343.605C533.19 343.452 533.405 343.427 533.428 343.581C534.273 349.14 529.98 354.653 525.404 357.523C527.888 362.157 531.648 368.012 528.404 373.106C528.386 373.134 528.34 373.116 528.356 373.083Z" fill="#17282F"/>
<path d="M544.122 325.166C544.122 325.166 505.929 342.256 505.035 343.03C505.035 343.03 480.425 265.527 478.401 252.387C476.376 239.246 481.144 235.699 489.565 244.841C503.427 259.887 544.122 325.166 544.122 325.166Z" fill="#FF4181"/>
<path d="M506.191 340.056C505.466 340.056 504.865 340.656 504.865 341.382C504.865 341.969 505.241 342.457 505.766 342.632C506.178 342.432 506.741 342.157 507.441 341.819C507.491 341.682 507.518 341.532 507.518 341.382C507.518 340.656 506.929 340.056 506.191 340.056ZM538.51 316.873C537.777 316.873 537.183 317.467 537.183 318.198C537.183 318.931 537.777 319.525 538.51 319.525C539.243 319.525 539.836 318.931 539.836 318.198C539.836 317.467 539.243 316.873 538.51 316.873ZM522.352 316.873C521.62 316.873 521.026 317.467 521.026 318.198C521.026 318.931 521.62 319.525 522.352 319.525C523.085 319.525 523.678 318.931 523.678 318.198C523.678 317.467 523.085 316.873 522.352 316.873ZM506.195 316.873C505.462 316.873 504.868 317.467 504.868 318.198C504.868 318.931 505.462 319.525 506.195 319.525C506.927 319.525 507.52 318.931 507.52 318.198C507.52 317.467 506.927 316.873 506.195 316.873ZM530.432 328.415C529.699 328.415 529.105 329.009 529.105 329.741C529.105 330.473 529.699 331.067 530.432 331.067C531.163 331.067 531.757 330.473 531.757 329.741C531.757 329.009 531.163 328.415 530.432 328.415ZM514.273 328.415C513.541 328.415 512.947 329.009 512.947 329.741C512.947 330.473 513.541 331.067 514.273 331.067C515.006 331.067 515.598 330.473 515.598 329.741C515.598 329.009 515.006 328.415 514.273 328.415ZM522.352 293.687C521.62 293.687 521.026 294.28 521.026 295.013C521.026 295.746 521.62 296.34 522.352 296.34C523.085 296.34 523.678 295.746 523.678 295.013C523.678 294.28 523.085 293.687 522.352 293.687ZM506.195 293.687C505.462 293.687 504.868 294.28 504.868 295.013C504.868 295.746 505.462 296.34 506.195 296.34C506.927 296.34 507.52 295.746 507.52 295.013C507.52 294.28 506.927 293.687 506.195 293.687ZM490.034 293.687C489.948 293.687 489.859 293.7 489.784 293.712C490.034 294.55 490.284 295.4 490.547 296.238C491.035 296.038 491.361 295.563 491.361 295.013C491.361 294.275 490.772 293.687 490.034 293.687ZM530.432 305.229C529.699 305.229 529.105 305.822 529.105 306.555C529.105 307.288 529.699 307.882 530.432 307.882C531.163 307.882 531.757 307.288 531.757 306.555C531.757 305.822 531.163 305.229 530.432 305.229ZM514.273 305.229C513.541 305.229 512.947 305.822 512.947 306.555C512.947 307.288 513.541 307.882 514.273 307.882C515.006 307.882 515.598 307.288 515.598 306.555C515.598 305.822 515.006 305.229 514.273 305.229ZM498.115 305.229C497.382 305.229 496.788 305.822 496.788 306.555C496.788 307.288 497.382 307.882 498.115 307.882C498.848 307.882 499.442 307.288 499.442 306.555C499.442 305.822 498.848 305.229 498.115 305.229ZM506.195 270.502C505.462 270.502 504.868 271.094 504.868 271.827C504.868 272.56 505.462 273.153 506.195 273.153C506.927 273.153 507.52 272.56 507.52 271.827C507.52 271.094 506.927 270.502 506.195 270.502ZM490.037 270.502C489.304 270.502 488.71 271.094 488.71 271.827C488.71 272.56 489.304 273.153 490.037 273.153C490.768 273.153 491.364 272.56 491.364 271.827C491.364 271.094 490.768 270.502 490.037 270.502ZM514.273 282.044C513.541 282.044 512.947 282.637 512.947 283.369C512.947 284.102 513.541 284.695 514.273 284.695C515.006 284.695 515.598 284.102 515.598 283.369C515.598 282.637 515.006 282.044 514.273 282.044ZM498.115 282.044C497.382 282.044 496.788 282.637 496.788 283.369C496.788 284.102 497.382 284.695 498.115 284.695C498.848 284.695 499.442 284.102 499.442 283.369C499.442 282.637 498.848 282.044 498.115 282.044ZM490.037 247.316C489.304 247.316 488.71 247.909 488.71 248.642C488.71 249.374 489.304 249.967 490.037 249.967C490.768 249.967 491.364 249.374 491.364 248.642C491.364 247.909 490.768 247.316 490.037 247.316ZM498.115 258.858C497.382 258.858 496.788 259.451 496.788 260.184C496.788 260.917 497.382 261.509 498.115 261.509C498.848 261.509 499.442 260.917 499.442 260.184C499.442 259.451 498.848 258.858 498.115 258.858ZM483.284 260.184C483.284 260.917 482.69 261.509 481.957 261.509C481.225 261.509 480.632 260.917 480.632 260.184C480.632 259.451 481.225 258.858 481.957 258.858C482.69 258.858 483.284 259.451 483.284 260.184Z" fill="white"/>
<path d="M478.398 252.384C480.422 265.531 505.04 343.031 505.04 343.031C505.697 342.456 525.204 333.613 537.129 328.285L485.427 241.152C479.656 237.273 476.734 241.595 478.398 252.384Z" fill="#E6316E"/>
<path d="M534.946 317.581C535.045 317.542 535.131 317.678 535.036 317.732C530.046 320.581 507.022 330.938 503.85 331.944C503.755 331.974 503.686 331.82 503.775 331.776C514.385 326.483 524.964 321.428 534.946 317.581Z" fill="#17282F"/>
<path d="M478.303 238.91C478.249 240.191 473.916 249.257 468.266 250.061C466.426 250.32 464.566 240.337 464.566 240.337L464.26 239.632L459.987 229.752L470.627 219.665L472.183 218.302C472.183 218.302 473.173 221.083 474.373 224.556C474.43 224.717 474.485 224.878 474.543 225.051C474.616 225.246 474.689 225.429 474.747 225.614C474.934 226.13 475.12 226.659 475.297 227.188C475.432 227.592 475.566 227.983 475.692 228.411C475.831 228.837 475.956 229.254 476.095 229.681C477.366 233.914 478.318 238.369 478.303 238.91Z" fill="#FFAEB5"/>
<path d="M474.373 224.556C472.981 233.332 467.057 237.93 464.26 239.632L459.987 229.752L470.627 219.665L472.183 218.302C472.183 218.302 473.173 221.083 474.373 224.556Z" fill="#17282F"/>
<path d="M442.641 216.02C443.365 234.896 454.713 236.786 458.824 236.433C462.508 236.118 475.083 235.321 476.312 216.47C477.542 197.618 468.536 191.987 460.068 191.875C451.599 191.761 441.917 197.142 442.641 216.02Z" fill="#FFAEB5"/>
<path d="M443.416 211.903C443.85 211.804 444.236 211.64 444.656 211.497C445.13 211.337 445.524 211.258 445.841 210.843C446.012 210.62 445.952 210.212 445.752 210.027C445.285 209.595 444.656 209.647 444.077 209.817C443.449 210.002 443.013 210.305 442.644 210.845C442.285 211.367 442.842 212.034 443.416 211.903Z" fill="#17282F"/>
<path d="M455.616 211.248C455.168 211.244 454.758 211.167 454.317 211.118C453.819 211.063 453.418 211.07 453.018 210.734C452.804 210.553 452.774 210.142 452.93 209.917C453.293 209.395 453.919 209.311 454.522 209.353C455.175 209.398 455.666 209.601 456.143 210.047C456.605 210.481 456.204 211.253 455.616 211.248Z" fill="#17282F"/>
<path d="M453.351 216.171C453.356 216.121 453.456 216.223 453.458 216.276C453.527 217.561 453.822 219.021 455.018 219.348C455.054 219.358 455.056 219.422 455.013 219.42C453.582 219.342 453.209 217.399 453.351 216.171Z" fill="#17282F"/>
<path d="M454.379 214.736C456.429 214.403 456.941 218.525 455.044 218.831C453.176 219.134 452.664 215.014 454.379 214.736Z" fill="#17282F"/>
<path d="M455.216 214.853C455.606 215.041 456.01 215.408 456.449 215.397C456.957 215.383 457.283 214.906 457.558 214.449C457.588 214.402 457.627 214.434 457.636 214.488C457.746 215.276 457.543 216.125 456.712 216.347C455.953 216.551 455.31 215.921 455.015 215.152C454.96 215.009 455.06 214.777 455.216 214.853Z" fill="#17282F"/>
<path d="M446.4 216.316C446.385 216.267 446.309 216.388 446.317 216.441C446.528 217.71 446.554 219.2 445.456 219.776C445.421 219.794 445.433 219.857 445.476 219.846C446.858 219.461 446.804 217.484 446.4 216.316Z" fill="#17282F"/>
<path d="M445.086 215.134C443.014 215.249 443.399 219.385 445.317 219.277C447.207 219.172 446.822 215.037 445.086 215.134Z" fill="#17282F"/>
<path d="M444.25 215.486C443.943 215.736 443.657 216.164 443.269 216.226C442.819 216.297 442.443 215.882 442.115 215.48C442.08 215.438 442.051 215.476 442.055 215.531C442.106 216.322 442.444 217.121 443.218 217.203C443.923 217.276 444.368 216.551 444.484 215.747C444.506 215.597 444.372 215.386 444.25 215.486Z" fill="#17282F"/>
<path d="M454.598 226.022C454.346 226.371 454.112 226.833 453.659 226.949C453.225 227.062 452.673 226.952 452.241 226.864C452.199 226.855 452.166 226.904 452.197 226.938C452.61 227.368 453.355 227.554 453.926 227.352C454.482 227.153 454.682 226.608 454.731 226.06C454.737 225.982 454.635 225.972 454.598 226.022Z" fill="#17282F"/>
<path d="M448.735 222.004C448.735 222.004 448.686 223.944 448.787 224.844C448.796 224.928 449.018 224.943 449.326 224.927C449.342 224.931 449.351 224.936 449.362 224.924C450.981 224.993 452.52 224.264 453.339 222.856C453.392 222.762 453.268 222.682 453.191 222.747C452.102 223.753 450.817 224.125 449.409 224.308C449.317 224.065 449.602 220.99 449.459 220.995C448.961 221.009 448.029 221.453 447.467 221.689C447.45 217.648 448.083 213.636 448.007 209.613C448.002 209.468 447.793 209.449 447.764 209.581C446.805 213.737 446.72 218.389 446.63 222.563C446.613 223.084 448.391 222.198 448.735 222.004Z" fill="#17282F"/>
<path d="M449.321 224.227C449.321 224.227 450.209 225.431 451.428 225.867C451.877 226.03 452.361 226.095 452.868 225.961C453.911 225.69 453.939 224.733 453.75 223.915C453.596 223.241 453.285 222.661 453.285 222.661C453.285 222.661 451.762 224.082 449.321 224.227Z" fill="#17282F"/>
<path d="M451.429 225.867C451.878 226.03 452.362 226.095 452.87 225.961C453.913 225.69 453.94 224.733 453.751 223.915C452.635 224.027 451.527 224.783 451.429 225.867Z" fill="#F578BA"/>
<path d="M580.132 540.77C581.544 543.539 582.921 546.274 584.234 548.937C585.054 550.591 585.842 552.209 586.602 553.775C591.498 563.854 594.969 571.721 594.4 572.709C592.657 575.759 523.926 612.345 521.096 612.83C518.271 613.299 516.72 605.266 518.255 601.719C519.191 599.566 526.967 589.19 532.924 581.392C532.941 581.371 532.946 581.355 532.946 581.355C536.781 576.35 539.851 572.396 539.851 572.396L535.36 564.434L514.841 528.213L560.887 503.875C560.887 503.875 571.001 522.755 580.132 540.77Z" fill="#FFAEB5"/>
<path d="M521.096 612.827C523.922 612.349 592.661 575.756 594.398 572.704C594.974 571.722 591.501 563.854 586.604 553.773C586.256 553.055 585.896 552.324 585.537 551.594C576.706 556.913 546.38 582.705 531.564 587.89C526.256 589.75 531.202 583.671 531.202 583.671C525.549 591.083 519.108 599.764 518.258 601.715C516.726 605.259 518.27 613.294 521.096 612.827Z" fill="#17282F"/>
<path d="M525.489 561.978C524.94 561.714 492.692 492.774 484.581 467.111C474.042 433.771 461.517 370.068 458.665 357.314C458.665 357.314 449.512 335.599 446.803 311.552C446.798 311.51 508.514 311.543 508.514 311.543C508.514 311.543 524.702 342.507 516.356 364.383C515.592 366.388 528.724 435.213 534.69 447.733C539.851 458.56 577.594 533.803 578.613 534.324L525.489 561.978Z" fill="#273E47"/>
<path d="M568.911 524.272C562.771 526.812 539.037 538.772 533.133 541.808C531.519 542.637 529.906 543.47 528.294 544.303C526.69 545.129 524.975 545.914 523.514 546.974C523.422 547.04 523.511 547.193 523.614 547.168C525.123 546.764 526.571 546.052 527.999 545.427C529.521 544.76 531.034 544.07 532.545 543.378C535.565 541.994 565.846 526.478 568.997 524.437C569.097 524.372 569.022 524.226 568.911 524.272Z" fill="#17282F"/>
<path d="M529.689 540.681C524.48 529.001 499.578 468.146 495.202 454.745C490.856 441.434 487.21 427.898 483.769 414.328C480.271 400.533 476.984 386.683 473.621 372.854C470.211 358.83 466.872 344.752 464.335 330.538C464.014 328.736 463.697 326.936 463.392 325.131C463.371 325.007 463.154 325.041 463.172 325.166C465.201 339.512 467.97 353.736 471.141 367.87C474.285 381.885 477.722 395.838 481.203 409.774C484.613 423.425 488.221 437.033 492.444 450.459C496.644 463.816 527.679 539.295 529.499 540.799C529.61 540.892 529.748 540.812 529.689 540.681Z" fill="#17282F"/>
<path d="M446.798 311.551C449.511 335.599 458.665 357.319 458.665 357.319C460.816 366.961 468.519 405.753 476.697 438.515L508.509 311.538C508.509 311.538 446.798 311.513 446.798 311.551Z" fill="#17282F"/>
<path d="M474.401 576.332C474.354 579.44 474.294 582.502 474.211 585.469C474.164 587.315 474.104 589.114 474.044 590.854C473.662 602.05 473.056 610.629 472.09 611.237C469.124 613.119 391.262 613.345 388.533 612.452C385.817 611.545 388.199 603.719 391.214 601.302C393.049 599.836 404.771 594.296 413.681 590.186C413.706 590.175 413.718 590.163 413.718 590.163C419.448 587.53 424.01 585.469 424.01 585.469L423.76 576.332L423.056 534.721H474.494C474.494 534.721 474.747 556.14 474.401 576.332Z" fill="#FFAEB5"/>
<path d="M483.583 366.768C483.572 366.804 478.306 416.826 475.84 442.022C475.22 448.3 474.792 453.042 474.649 455.079C474.588 455.877 474.553 468.957 474.53 486.064C474.506 501.062 478.235 570.526 478.235 570.526H419.839C419.839 570.526 422.339 462.512 423.22 450.324C423.328 448.909 423.423 447.454 423.519 445.965C425.818 411.452 427.081 361.205 444.009 311.552H508.603C508.603 311.552 510.198 340.299 496.93 361.397C496.93 361.397 487.432 364.606 483.583 366.768Z" fill="#273E47"/>
<path d="M473.867 557.904C467.235 557.498 440.661 557.855 434.023 557.998C432.208 558.037 430.394 558.079 428.579 558.122C426.775 558.163 424.89 558.119 423.111 558.432C423.001 558.45 423.012 558.627 423.116 558.647C424.65 558.947 426.265 558.941 427.823 559.005C429.482 559.071 431.144 559.113 432.805 559.153C436.128 559.231 470.145 558.543 473.87 558.088C473.989 558.074 473.987 557.912 473.867 557.904Z" fill="#17282F"/>
<path d="M452.002 318.597C447.656 333.218 444.061 348.019 441.299 363.028C438.556 377.919 436.397 392.931 434.761 407.986C433.102 423.248 431.945 438.568 431.178 453.903C430.413 469.198 430.063 484.514 430.039 499.83C430.014 515.139 429.823 553.041 429.939 554.958C429.947 555.086 430.134 555.08 430.135 554.953C430.218 539.722 431.295 521.027 431.328 505.793C431.361 490.477 431.632 475.157 432.256 459.852C432.875 444.652 433.857 429.472 435.352 414.334C436.861 399.07 438.848 383.86 441.485 368.75C444.092 353.813 447.236 338.959 450.846 324.237C451.303 322.375 451.783 320.519 452.267 318.664C452.312 318.492 452.052 318.429 452.002 318.597Z" fill="#17282F"/>
<path d="M503.887 358.537C502.238 360.222 500.021 361.137 497.774 361.715C495.355 362.336 492.862 362.718 490.412 363.182C484.94 364.22 479.47 365.13 473.89 365.321C470.749 365.429 467.553 365.345 464.492 364.578C464.369 364.548 464.324 364.732 464.444 364.767C467.173 365.593 469.919 366.234 472.764 366.482C475.631 366.729 478.49 366.584 481.342 366.24C484.234 365.893 487.111 365.334 489.959 364.727C492.517 364.183 495.106 363.611 497.579 362.749C500.035 361.895 502.341 360.697 504.016 358.659C504.086 358.572 503.969 358.456 503.887 358.537Z" fill="#17282F"/>
<path d="M388.535 612.456C391.267 613.343 469.118 613.114 472.087 611.234C473.057 610.624 473.669 602.051 474.039 590.855C474.1 589.263 474.148 587.622 474.195 585.934C464.617 587.083 423.395 596.102 405.742 596.102C401.454 596.102 408.271 593.166 407.429 593.095C400.03 596.567 392.642 600.159 391.218 601.297C388.199 603.714 385.817 611.546 388.535 612.456Z" fill="#17282F"/>
<path d="M444.571 293.542L439.208 322.235C439.208 322.235 502.73 323.122 517.648 322.07C517.648 322.07 502.049 261.319 486.01 243.903C477.987 235.194 468.568 235.844 462.564 241.934C461.045 243.476 442.921 267.429 441.012 276.58C439.346 284.655 444.571 293.542 444.571 293.542Z" fill="#FF4181"/>
<path d="M506.194 316.873C505.461 316.873 504.867 317.467 504.867 318.199C504.867 318.931 505.461 319.525 506.194 319.525C506.927 319.525 507.52 318.931 507.52 318.199C507.52 317.467 506.927 316.873 506.194 316.873ZM490.036 316.873C489.304 316.873 488.71 317.467 488.71 318.199C488.71 318.931 489.304 319.525 490.036 319.525C490.768 319.525 491.363 318.931 491.363 318.199C491.363 317.467 490.768 316.873 490.036 316.873ZM473.877 316.873C473.146 316.873 472.553 317.467 472.553 318.199C472.553 318.931 473.146 319.525 473.877 319.525C474.61 319.525 475.204 318.931 475.204 318.199C475.204 317.467 474.61 316.873 473.877 316.873ZM457.72 316.873C456.987 316.873 456.394 317.467 456.394 318.199C456.394 318.931 456.987 319.525 457.72 319.525C458.452 319.525 459.046 318.931 459.046 318.199C459.046 317.467 458.452 316.873 457.72 316.873ZM441.562 316.873C440.829 316.873 440.236 317.467 440.236 318.199C440.236 318.931 440.829 319.525 441.562 319.525C442.295 319.525 442.889 318.931 442.889 318.199C442.889 317.467 442.295 316.873 441.562 316.873ZM506.194 293.687C505.461 293.687 504.867 294.28 504.867 295.013C504.867 295.746 505.461 296.34 506.194 296.34C506.927 296.34 507.52 295.746 507.52 295.013C507.52 294.28 506.927 293.687 506.194 293.687ZM490.036 293.687C489.304 293.687 488.71 294.28 488.71 295.013C488.71 295.746 489.304 296.34 490.036 296.34C490.768 296.34 491.363 295.746 491.363 295.013C491.363 294.28 490.768 293.687 490.036 293.687ZM473.877 293.687C473.146 293.687 472.553 294.28 472.553 295.013C472.553 295.746 473.146 296.34 473.877 296.34C474.61 296.34 475.204 295.746 475.204 295.013C475.204 294.28 474.61 293.687 473.877 293.687ZM457.72 293.687C456.987 293.687 456.394 294.28 456.394 295.013C456.394 295.746 456.987 296.34 457.72 296.34C458.452 296.34 459.046 295.746 459.046 295.013C459.046 294.28 458.452 293.687 457.72 293.687ZM513.093 305.955C512.993 306.13 512.943 306.343 512.943 306.555C512.943 307.043 513.206 307.468 513.607 307.693C513.445 307.13 513.268 306.543 513.093 305.955ZM498.115 305.23C497.382 305.23 496.788 305.822 496.788 306.555C496.788 307.288 497.382 307.882 498.115 307.882C498.847 307.882 499.441 307.288 499.441 306.555C499.441 305.822 498.847 305.23 498.115 305.23ZM481.957 305.23C481.224 305.23 480.631 305.822 480.631 306.555C480.631 307.288 481.224 307.882 481.957 307.882C482.69 307.882 483.284 307.288 483.284 306.555C483.284 305.822 482.69 305.23 481.957 305.23ZM465.799 305.23C465.066 305.23 464.474 305.822 464.474 306.555C464.474 307.288 465.066 307.882 465.799 307.882C466.532 307.882 467.126 307.288 467.126 306.555C467.126 305.822 466.532 305.23 465.799 305.23ZM449.641 305.23C448.909 305.23 448.316 305.822 448.316 306.555C448.316 307.288 448.909 307.882 449.641 307.882C450.373 307.882 450.968 307.288 450.968 306.555C450.968 305.822 450.373 305.23 449.641 305.23ZM490.036 270.502C489.304 270.502 488.71 271.095 488.71 271.827C488.71 272.56 489.304 273.153 490.036 273.153C490.768 273.153 491.363 272.56 491.363 271.827C491.363 271.095 490.768 270.502 490.036 270.502ZM473.877 270.502C473.146 270.502 472.553 271.095 472.553 271.827C472.553 272.56 473.146 273.153 473.877 273.153C474.61 273.153 475.204 272.56 475.204 271.827C475.204 271.095 474.61 270.502 473.877 270.502ZM457.72 270.502C456.987 270.502 456.394 271.095 456.394 271.827C456.394 272.56 456.987 273.153 457.72 273.153C458.452 273.153 459.046 272.56 459.046 271.827C459.046 271.095 458.452 270.502 457.72 270.502ZM442.865 271.566C442.641 272.041 442.428 272.516 442.24 272.967C442.627 272.729 442.89 272.304 442.89 271.829C442.89 271.741 442.877 271.641 442.865 271.566ZM498.115 282.044C497.382 282.044 496.788 282.637 496.788 283.37C496.788 284.102 497.382 284.695 498.115 284.695C498.847 284.695 499.441 284.102 499.441 283.37C499.441 282.637 498.847 282.044 498.115 282.044ZM481.957 282.044C481.224 282.044 480.631 282.637 480.631 283.37C480.631 284.102 481.224 284.695 481.957 284.695C482.69 284.695 483.284 284.102 483.284 283.37C483.284 282.637 482.69 282.044 481.957 282.044ZM465.799 282.044C465.066 282.044 464.474 282.637 464.474 283.37C464.474 284.102 465.066 284.695 465.799 284.695C466.532 284.695 467.126 284.102 467.126 283.37C467.126 282.637 466.532 282.044 465.799 282.044ZM449.641 282.044C448.909 282.044 448.316 282.637 448.316 283.37C448.316 284.102 448.909 284.695 449.641 284.695C450.373 284.695 450.968 284.102 450.968 283.37C450.968 282.637 450.373 282.044 449.641 282.044ZM489.072 247.744C488.846 247.969 488.708 248.294 488.708 248.644C488.708 249.37 489.309 249.97 490.034 249.97C490.197 249.97 490.359 249.945 490.509 249.882C490.034 249.144 489.546 248.419 489.072 247.744ZM473.877 247.316C473.146 247.316 472.553 247.909 472.553 248.642C472.553 249.375 473.146 249.967 473.877 249.967C474.61 249.967 475.204 249.375 475.204 248.642C475.204 247.909 474.61 247.316 473.877 247.316ZM458.284 247.444C457.797 248.107 457.284 248.807 456.745 249.545C456.996 249.807 457.334 249.97 457.721 249.97C458.446 249.97 459.048 249.37 459.048 248.644C459.048 248.107 458.735 247.656 458.284 247.444ZM481.957 258.858C481.224 258.858 480.631 259.451 480.631 260.184C480.631 260.917 481.224 261.509 481.957 261.509C482.69 261.509 483.284 260.917 483.284 260.184C483.284 259.451 482.69 258.858 481.957 258.858ZM465.799 258.858C465.066 258.858 464.474 259.451 464.474 260.184C464.474 260.917 465.066 261.509 465.799 261.509C466.532 261.509 467.126 260.917 467.126 260.184C467.126 259.451 466.532 258.858 465.799 258.858ZM450.968 260.186C450.968 260.912 450.368 261.512 449.643 261.512C449.317 261.512 449.017 261.399 448.794 261.187C449.256 260.449 449.731 259.724 450.205 258.986C450.656 259.198 450.968 259.649 450.968 260.186Z" fill="white"/>
<path d="M497.819 263.255C499.338 266.596 500.796 269.972 502.201 273.37C501.977 272.342 501.726 271.322 501.444 270.312C501.403 270.16 501.624 270.114 501.676 270.254C502.227 271.755 502.611 273.292 502.817 274.865C507.31 285.904 511.179 297.221 514.332 308.693C514.926 310.859 515.527 313.031 516.029 315.221C516.549 317.492 517.237 319.764 517.528 322.08C517.546 322.21 517.379 322.251 517.332 322.129C516.594 320.206 516.093 318.161 515.53 316.18C514.987 314.277 514.413 312.379 513.846 310.483C512.685 306.604 511.516 302.726 510.302 298.863C507.902 291.23 505.252 283.677 502.563 276.143C501.024 271.834 499.331 267.576 497.664 263.315C497.629 263.228 497.778 263.169 497.819 263.255Z" fill="#17282F"/>
<path d="M468.465 253.055C464.569 261.702 444.003 296.452 432.816 300.205C415.281 306.091 393.777 302.34 382.447 301.299C376.112 300.718 382.367 262.651 389.134 264.896C398.403 267.973 420.938 270.896 424.267 270.789C427.596 270.682 443.753 254.355 456.121 244.695C467.586 235.74 474.91 238.754 468.465 253.055Z" fill="#FFAEB5"/>
<path d="M333.136 262.317C332.667 267.856 352.043 268.626 352.043 268.626C352.043 268.626 349.442 269.855 348.476 272.445C347.37 275.41 351.534 278.445 351.534 278.445C351.534 278.445 349.16 280.234 348.415 283.073C347.641 286.017 351.407 289.679 351.407 289.679C351.407 289.679 350.111 292.562 351.226 295.475C353.133 300.46 361.13 302.024 366.205 303.071C371.277 304.116 386.35 302.855 390.109 302.086L397.162 267.886C397.162 267.886 384.65 260.773 369.051 258.235C363.935 257.403 333.668 256.047 333.136 262.317Z" fill="#FFAEB5"/>
<path d="M352.379 268.152C357.96 267.174 363.526 267.902 369.125 268.312C369.249 268.321 369.232 268.517 369.108 268.506C363.546 268.033 357.963 268.671 352.393 268.421C352.239 268.413 352.228 268.178 352.379 268.152Z" fill="#17282F"/>
<path d="M351.728 278.042C352.999 277.86 354.326 278.096 355.586 278.251C356.946 278.42 358.3 278.611 359.653 278.825C362.36 279.25 365.06 279.738 367.741 280.304C367.86 280.329 367.851 280.517 367.725 280.498C365.025 280.078 362.32 279.699 359.605 279.393C358.247 279.24 356.887 279.1 355.527 278.966C354.262 278.844 352.916 278.819 351.7 278.416C351.52 278.356 351.538 278.07 351.728 278.042Z" fill="#17282F"/>
<path d="M351.52 289.693C352.617 289.491 353.9 289.874 354.983 290.068C356.212 290.287 357.444 290.5 358.676 290.706C361.139 291.119 363.603 291.529 366.079 291.855C366.203 291.872 366.188 292.064 366.062 292.049C363.545 291.73 361.023 291.446 358.508 291.106C357.273 290.939 356.04 290.765 354.805 290.584C353.758 290.43 352.429 290.357 351.494 289.817C351.443 289.786 351.465 289.704 351.52 289.693Z" fill="#17282F"/>
<path d="M398.033 265.921L394.999 307.543C394.999 307.543 430.388 305.144 435.982 301.095C442.661 296.261 465.395 264.611 470.688 251.829C475.983 239.048 468.929 234.747 457.866 243.033C446.805 251.32 427.163 267.803 425.649 268.576C424.133 269.349 398.033 265.921 398.033 265.921Z" fill="#FF4181"/>
<path d="M441.564 293.687C440.827 293.687 440.24 294.275 440.24 295.013C440.24 295.513 440.514 295.951 440.928 296.176C441.464 295.563 442.027 294.913 442.615 294.213C442.378 293.887 441.989 293.687 441.564 293.687ZM425.404 293.687C424.672 293.687 424.078 294.28 424.078 295.013C424.078 295.746 424.672 296.34 425.404 296.34C426.137 296.34 426.731 295.746 426.731 295.013C426.731 294.28 426.137 293.687 425.404 293.687ZM409.248 293.687C408.515 293.687 407.921 294.28 407.921 295.013C407.921 295.746 408.515 296.34 409.248 296.34C409.979 296.34 410.573 295.746 410.573 295.013C410.573 294.28 409.979 293.687 409.248 293.687ZM417.33 305.229C417.067 305.229 416.817 305.305 416.617 305.442C416.992 305.392 417.368 305.342 417.742 305.305C417.617 305.254 417.481 305.229 417.33 305.229ZM401.173 305.229C400.436 305.229 399.835 305.817 399.835 306.555C399.835 306.768 399.885 306.98 399.985 307.155C400.735 307.093 401.561 307.018 402.436 306.955C402.475 306.83 402.499 306.693 402.499 306.555C402.499 305.817 401.9 305.229 401.173 305.229ZM457.72 270.502C456.987 270.502 456.394 271.094 456.394 271.827C456.394 272.56 456.987 273.153 457.72 273.153C458.452 273.153 459.046 272.56 459.046 271.827C459.046 271.094 458.452 270.502 457.72 270.502ZM441.562 270.502C440.829 270.502 440.236 271.094 440.236 271.827C440.236 272.56 440.829 273.153 441.562 273.153C442.295 273.153 442.889 272.56 442.889 271.827C442.889 271.094 442.295 270.502 441.562 270.502ZM425.404 270.502C424.672 270.502 424.078 271.094 424.078 271.827C424.078 272.56 424.672 273.153 425.404 273.153C426.137 273.153 426.731 272.56 426.731 271.827C426.731 271.094 426.137 270.502 425.404 270.502ZM409.248 270.502C408.515 270.502 407.921 271.094 407.921 271.827C407.921 272.56 408.515 273.153 409.248 273.153C409.979 273.153 410.573 272.56 410.573 271.827C410.573 271.094 409.979 270.502 409.248 270.502ZM449.641 282.044C448.909 282.044 448.316 282.637 448.316 283.369C448.316 284.102 448.909 284.695 449.641 284.695C450.373 284.695 450.968 284.102 450.968 283.369C450.968 282.637 450.373 282.044 449.641 282.044ZM433.482 282.044C432.751 282.044 432.158 282.637 432.158 283.369C432.158 284.102 432.751 284.695 433.482 284.695C434.215 284.695 434.809 284.102 434.809 283.369C434.809 282.637 434.215 282.044 433.482 282.044ZM417.326 282.044C416.593 282.044 415.999 282.637 415.999 283.369C415.999 284.102 416.593 284.695 417.326 284.695C418.057 284.695 418.651 284.102 418.651 283.369C418.651 282.637 418.057 282.044 417.326 282.044ZM401.168 282.044C400.435 282.044 399.841 282.637 399.841 283.369C399.841 284.102 400.435 284.695 401.168 284.695C401.901 284.695 402.494 284.102 402.494 283.369C402.494 282.637 401.901 282.044 401.168 282.044ZM457.72 247.316C456.987 247.316 456.394 247.909 456.394 248.642C456.394 249.374 456.987 249.967 457.72 249.967C458.452 249.967 459.046 249.374 459.046 248.642C459.046 247.909 458.452 247.316 457.72 247.316ZM465.799 258.861C465.061 258.861 464.475 259.448 464.475 260.186C464.475 260.862 464.974 261.424 465.637 261.499C466.049 260.774 466.462 260.074 466.85 259.386C466.624 259.061 466.238 258.861 465.799 258.861ZM450.968 260.184C450.968 260.917 450.373 261.509 449.641 261.509C448.909 261.509 448.316 260.917 448.316 260.184C448.316 259.451 448.909 258.858 449.641 258.858C450.373 258.858 450.968 259.451 450.968 260.184Z" fill="white"/>
<path d="M444.015 292.506C444.394 291.955 459.074 271.952 462.485 266.33C463.593 264.506 464.735 262.566 465.852 260.872C465.92 260.769 466.096 260.884 466.042 261.002C465.526 262.122 465.103 263.085 464.543 264.075C464.277 264.548 464.008 265.019 463.74 265.492C464.358 264.837 465.016 264.229 465.682 263.621C465.756 263.555 465.87 263.643 465.803 263.724C465.204 264.464 464.608 265.197 463.949 265.884C463.646 266.199 463.342 266.501 463.017 266.793C463.006 266.801 462.996 266.81 462.986 266.819C462.96 266.866 462.934 266.915 462.906 266.963C454.998 280.003 444.914 291.913 444.171 292.604C444.073 292.697 443.937 292.619 444.015 292.506Z" fill="#17282F"/>
<path d="M406.598 269.99C406.611 269.884 406.773 269.874 406.775 269.983C406.932 275.725 405.197 300.912 404.587 304.185C404.568 304.283 404.402 304.27 404.404 304.17C404.744 292.319 405.281 280.607 406.598 269.99Z" fill="#17282F"/>
<path d="M453.248 189.682C451.954 190.398 443.238 191.2 441.762 198.256C440.638 203.627 444.187 206.517 449.208 206.929C454.744 207.383 460.818 203.847 460.818 203.847C462.014 209.313 463.591 216.349 465.649 217.15C467.326 217.802 469.273 215.434 469.273 215.434C471.34 219.697 472.035 229.336 471.539 231.41C470.372 236.298 466.555 243.488 472.87 248.678C474.254 249.816 479.627 251.699 484.883 249.087C490.139 246.473 490.422 242.07 492.304 240.27C494.187 238.468 500.442 237.786 501.896 233.959C503.351 230.133 502.301 226.211 502.91 224.372C503.518 222.532 506.027 221.788 506.198 218.024C506.368 214.262 502.594 213.42 501.073 210.82C500.016 209.008 501.021 206.556 498.644 204.092C495.376 200.704 490.768 203.543 487.224 200.141C484.443 197.472 476.902 187.004 467.013 185.866C458.925 184.937 453.248 189.682 453.248 189.682Z" fill="#17282F"/>
<path d="M475.954 189.712C478.463 191.47 480.474 193.77 482.691 195.807C483.803 196.825 484.875 197.884 486.05 198.797C486.64 199.236 487.244 199.696 487.882 199.968C488.04 200.055 488.197 200.113 488.346 200.133C488.495 200.171 488.64 200.217 488.844 200.213C489.22 200.238 489.608 200.237 489.999 200.231C491.562 200.23 493.189 200.131 494.811 200.296C496.416 200.452 498.093 200.917 499.288 202.029C499.876 202.573 500.368 203.261 500.587 204.057C500.819 204.853 500.779 205.686 500.691 206.468C500.46 208.032 500.271 209.582 500.766 211.05C500.045 209.686 500.125 208.004 500.191 206.473C500.225 205.704 500.212 204.948 499.97 204.286C499.739 203.622 499.289 203.072 498.742 202.622C497.619 201.745 496.176 201.306 494.647 201.2C493.119 201.071 491.54 201.199 489.92 201.228C489.515 201.225 489.108 201.22 488.694 201.185C488.312 201.159 487.742 201.032 487.416 200.839C486.645 200.484 486.046 199.993 485.43 199.518C484.238 198.531 483.14 197.477 482.11 196.362L479.056 193.005C478.061 191.869 477.087 190.718 475.954 189.712Z" fill="#17282F"/>
<path d="M503.862 222.896C503.586 223.933 503.924 225.005 504.08 226.054C504.259 227.11 504.441 228.175 504.569 229.254C504.708 230.332 504.759 231.431 504.669 232.545C504.566 233.649 504.316 234.8 503.662 235.806C502.245 237.78 499.937 238.534 497.845 238.954C496.779 239.168 495.717 239.319 494.68 239.548C493.642 239.752 492.614 240.053 491.761 240.725C492.467 239.886 493.544 239.452 494.559 239.094C495.598 238.766 496.651 238.532 497.671 238.237C499.679 237.676 501.751 236.886 502.867 235.271C503.405 234.48 503.646 233.472 503.767 232.454C503.906 231.431 503.867 230.372 503.837 229.312C503.8 228.25 503.7 227.184 503.616 226.11C503.588 225.57 503.563 225.03 503.562 224.486C503.59 223.953 503.558 223.368 503.862 222.896Z" fill="#17282F"/>
<path d="M461.986 202.385C460.945 203.45 459.76 204.32 458.52 205.064C457.269 205.787 455.958 206.405 454.568 206.778C453.878 206.966 453.179 207.159 452.465 207.246L451.394 207.407L450.309 207.471C449.584 207.551 448.857 207.469 448.121 207.484C447.387 207.469 446.66 207.351 445.907 207.329C446.615 207.55 447.338 207.756 448.069 207.921C448.811 208.013 449.556 208.191 450.313 208.171C451.827 208.284 453.35 208.021 454.82 207.64C456.289 207.225 457.672 206.528 458.904 205.647C460.137 204.77 461.217 203.668 461.986 202.385Z" fill="#17282F"/>
<path d="M461.371 201.325C460.697 204.166 460.566 207.136 460.983 210.062C461.213 211.518 461.602 212.982 462.33 214.304C463.034 215.619 464.215 216.78 465.649 217.15C464.353 216.442 463.522 215.256 462.957 213.992C462.408 212.708 462.078 211.328 461.871 209.925C461.441 207.113 461.4 204.235 461.371 201.325Z" fill="#17282F"/>
<path d="M467.607 217.05C467.607 217.05 470.987 210.698 473.821 211.834C476.654 212.971 474.61 221.83 471.632 223.37C468.655 224.911 467.177 222.183 467.177 222.183L467.607 217.05Z" fill="#FFAEB5"/>
<path d="M473.172 214.359C473.222 214.349 473.238 214.418 473.198 214.441C471.12 215.592 470.214 217.76 469.665 219.96C470.215 219.072 471.047 218.521 472.226 219.162C472.289 219.196 472.244 219.292 472.181 219.287C471.262 219.205 470.634 219.439 470.117 220.229C469.75 220.789 469.535 221.467 469.3 222.091C469.223 222.298 468.856 222.237 468.904 222.002C468.907 221.986 468.911 221.967 468.915 221.95C468.521 219.168 470.212 215.004 473.172 214.359Z" fill="#17282F"/>
<path d="M343.799 320.598L348.696 332.422L343.805 334.446L338.88 322.542L330.798 328.812V295.502L354.117 319.058L343.799 320.598Z" fill="#17282F"/>
<path d="M333.083 286.721C332.591 284.99 332.479 283.259 332.459 281.529C332.477 279.798 332.588 278.066 333.083 276.335C333.58 278.066 333.691 279.798 333.709 281.529C333.687 283.259 333.577 284.99 333.083 286.721Z" fill="#17282F"/>
<path d="M324.139 290.426C322.566 289.551 321.264 288.405 320.025 287.196C318.814 285.959 317.669 284.656 316.795 283.082C318.371 283.956 319.672 285.101 320.909 286.312C322.118 287.551 323.264 288.853 324.139 290.426Z" fill="#17282F"/>
<path d="M320.434 299.37C318.704 299.864 316.973 299.974 315.242 299.995C313.51 299.976 311.78 299.866 310.049 299.37C311.78 298.874 313.51 298.763 315.242 298.746C316.973 298.766 318.704 298.877 320.434 299.37Z" fill="#17282F"/>
<path d="M324.139 308.315C323.264 309.888 322.118 311.189 320.909 312.427C319.672 313.639 318.371 314.785 316.795 315.657C317.669 314.083 318.814 312.781 320.025 311.545C321.264 310.335 322.566 309.19 324.139 308.315Z" fill="#17282F"/>
<path d="M345.732 299.37C347.462 298.877 349.194 298.766 350.924 298.746C352.655 298.763 354.386 298.874 356.117 299.37C354.386 299.866 352.655 299.976 350.924 299.995C349.194 299.974 347.462 299.864 345.732 299.37Z" fill="#17282F"/>
<path d="M342.028 290.426C342.904 288.853 344.049 287.551 345.258 286.312C346.495 285.101 347.797 283.956 349.373 283.082C348.497 284.656 347.352 285.959 346.142 287.196C344.902 288.405 343.6 289.551 342.028 290.426Z" fill="#17282F"/>
</g>
<defs>
<filter id="filter0_f_233_6300" x="66.7069" y="540.567" width="532.752" height="96.4901" filterUnits="userSpaceOnUse" color-interpolation-filters="sRGB">
<feFlood flood-opacity="0" result="BackgroundImageFix"/>
<feBlend mode="normal" in="SourceGraphic" in2="BackgroundImageFix" result="shape"/>
<feGaussianBlur stdDeviation="9.19121" result="effect1_foregroundBlur_233_6300"/>
</filter>
<clipPath id="clip0_233_6300">
<rect width="510.206" height="510.206" fill="white" transform="translate(84.769 108.794)"/>
</clipPath>
</defs>
</svg>
