<svg width="833" height="454" viewBox="0 0 833 454" fill="none" xmlns="http://www.w3.org/2000/svg">
<path opacity="0.2" d="M223.488 345.086L274.239 326.557L274.226 326.387C273.803 320.797 272.704 315.285 270.96 309.955C265.078 291.972 249.093 247.257 233.441 240.024C213.764 230.935 182.788 235.881 178.696 212.824C174.601 189.765 160.79 160.812 124.763 168.444C88.733 176.074 42.3062 131.951 42.3062 131.951C42.3062 131.951 46.911 179.524 89.8872 201.586C132.863 223.649 123.159 232.71 128.393 266.327C133.627 299.944 132.569 319.821 188.316 326.618C203.435 328.461 214.862 335.625 223.488 345.086Z" fill="#05264E"/>
<path d="M235.908 340.552L260.049 331.737C246.216 334.344 208.804 332.267 195.755 305.478C179.227 271.547 166.831 276.572 144.324 280.61C121.819 284.648 118.188 292.797 94.7565 270.324C71.3268 247.852 40.0914 255.345 40.0914 255.345C40.0914 255.345 78.2942 275.179 81.3378 299.742C84.3799 324.305 105.8 326.739 121.348 324.29C136.895 321.838 140.535 342.605 150.621 353.115C155.223 357.912 167.683 360.075 179.873 361.01L235.908 340.552Z" fill="#5094E6"/>
<path d="M170.94 324.93C175.851 335.107 186.509 345.448 199.451 352.596C199.907 352.847 200.376 353.099 200.853 353.35L203.601 352.347C202.513 351.806 201.47 351.262 200.486 350.718C188.107 343.883 177.523 333.645 172.866 323.999C165.456 308.644 149.175 302.28 120.073 303.366C103.182 303.999 91.676 287.299 91.564 287.127C91.2324 286.638 90.5658 286.508 90.078 286.839C89.5862 287.171 89.4568 287.838 89.787 288.325C90.2807 289.056 102.06 306.185 120.152 305.509C148.285 304.456 163.948 310.445 170.94 324.93Z" fill="#313B98"/>
<path d="M148.645 221.176C161.227 262.643 178.077 282.458 203.273 285.435C219.098 287.309 238.633 297.232 254.252 311.333C259.183 315.786 264.598 321.406 269.696 328.215L272.82 327.075C267.416 319.73 261.635 313.703 256.389 308.966C240.06 294.225 220.342 284.248 203.646 282.276C179.88 279.465 163.857 260.333 151.696 220.248C143.875 194.468 114.066 186.206 112.801 185.866C111.953 185.636 111.078 186.142 110.85 186.996C110.621 187.844 111.126 188.717 111.974 188.947C112.27 189.02 141.345 197.108 148.645 221.176Z" fill="#3550AA"/>
<path d="M281.661 70.5678C277.861 38.522 268.356 8.88034 254.49 19.8925C240.612 30.9156 257.933 81.6115 286.944 111.037L294.42 123.407C273.65 101.594 238.83 87.0474 228.368 97.8458C217.971 108.577 242.03 116.155 265.157 119.412C282.762 121.892 293.72 127.547 298.989 130.968L334.293 189.389C301.309 154.939 246.322 132.036 229.765 149.122C213.268 166.15 251.442 178.174 288.139 183.342C315.871 187.245 333.219 196.126 341.652 201.564L348.689 213.212C350.903 212.31 353.108 211.393 355.307 210.46L313.304 140.957C313.5 134.124 314.79 124.532 319.004 112.756C326.878 90.7674 331.355 65.946 317.019 70.1602C304.582 73.8187 300.403 102.277 305.679 128.338L291.154 104.303C287.93 96.0997 283.304 84.3974 281.661 70.5678Z" fill="#5094E6"/>
<path d="M633.712 60.5239C634.034 28.2515 640.285 -2.23958 655.257 7.21122C670.246 16.669 658.495 68.9427 632.829 101.325L626.735 114.429C645.025 90.5023 678.072 72.2829 689.64 81.8895C701.137 91.4342 678.038 101.565 655.394 107.299C638.159 111.662 627.877 118.471 623.007 122.439L594.213 184.328C623.289 146.522 675.482 117.816 693.785 133.016C712.023 148.161 675.368 164.238 639.443 173.334C612.295 180.211 596.008 190.911 588.212 197.225L582.471 209.567C580.176 208.908 577.884 208.233 575.596 207.546L609.852 133.917C608.922 127.141 606.603 117.745 601.143 106.496C590.944 85.4827 583.811 61.2892 598.521 63.9336C611.281 66.2261 618.506 94.0699 616.071 120.547L627.918 95.0832C630.239 86.5787 633.575 74.4492 633.712 60.5239Z" fill="#5094E6"/>
<path d="M668.509 210.806C656.065 228.374 665.741 249.244 687.122 250.037C694.187 250.299 702.345 248.311 711.471 242.439C746.238 220.065 748.305 188.229 718.715 178.104C700.451 171.856 680.844 193.4 668.509 210.806Z" fill="#B3D3F9"/>
<path opacity="0.2" d="M664.48 418.481C682.865 404.243 723.366 370.529 751.426 329.909C791.693 271.609 823.118 281.411 826.529 304.336C835.354 363.621 731.088 413.122 688.223 430.838L664.48 418.481Z" fill="#05264E"/>
<path d="M672.836 422.829C703.574 405.512 730.49 383.789 749.022 367.161C773.808 344.929 789.362 326.768 789.518 326.585C790.074 325.933 791.058 325.855 791.711 326.413C792.367 326.97 792.446 327.953 791.883 328.606C791.732 328.788 776.066 347.078 751.141 369.444C732.833 385.873 706.388 407.252 676.126 424.539L672.836 422.829Z" fill="#3550AA"/>
<path d="M671.387 397.01C680.878 382.986 699.262 353.409 708.751 322.062C722.932 275.219 745.67 275.035 752.749 289.391C772.201 328.822 705.447 387.905 684.356 405.221L671.387 397.01Z" fill="#5094E6"/>
<path d="M676.323 400.136C693.051 382.165 706.293 362.019 715.035 347.067C726.644 327.217 733.041 311.99 733.105 311.835C733.333 311.29 733.963 311.031 734.51 311.263C735.06 311.486 735.319 312.117 735.087 312.666C735.026 312.816 728.581 328.151 716.91 348.123C708.154 363.102 694.91 383.256 678.171 401.305L676.323 400.136Z" fill="#313B98"/>
</svg>
